<svg width="20" height="20" viewBox="0 0 20 20" fill="none" xmlns="http://www.w3.org/2000/svg">
<path fill-rule="evenodd" clip-rule="evenodd" d="M9.78285 18.2825C14.4771 18.2825 18.2826 14.477 18.2826 9.78272C18.2826 5.08843 14.4771 1.28296 9.78285 1.28296C5.08856 1.28296 1.28308 5.08843 1.28308 9.78272C1.28308 14.477 5.08856 18.2825 9.78285 18.2825Z" fill="#EDAD47"/>
<path fill-rule="evenodd" clip-rule="evenodd" d="M9.78263 16.6788C13.5912 16.6788 16.6787 13.5913 16.6787 9.78275C16.6787 5.97418 13.5912 2.88672 9.78263 2.88672C5.97406 2.88672 2.8866 5.97418 2.8866 9.78275C2.8866 13.5913 5.97406 16.6788 9.78263 16.6788Z" fill="#1D1D1C"/>
<path d="M15.0929 12.4474C15.3059 12.4013 15.5278 12.4666 15.6819 12.6208L19.5457 16.4846C19.7963 16.7351 19.7963 17.1413 19.5457 17.3918L17.3911 19.5464C17.1406 19.7969 16.7344 19.7969 16.4839 19.5464L12.6201 15.6826C12.466 15.5285 12.4007 15.3066 12.4467 15.0935L12.8295 13.3217C12.8827 13.0756 13.0749 12.8833 13.321 12.8301L15.0929 12.4474Z" fill="#EDAD47"/>
<path d="M4.90639 12.4474C4.69333 12.4013 4.47146 12.4666 4.31733 12.6208L0.453529 16.4846C0.203011 16.7351 0.203011 17.1413 0.453529 17.3918L2.60814 19.5464C2.85866 19.7969 3.26483 19.7969 3.51535 19.5464L7.37915 15.6826C7.53329 15.5285 7.5986 15.3066 7.55257 15.0935L7.16979 13.3217C7.11661 13.0756 6.92436 12.8833 6.67822 12.8301L4.90639 12.4474Z" fill="#EDAD47"/>
<path d="M15.0929 7.55264C15.3059 7.59867 15.5278 7.53335 15.6819 7.37922L19.5457 3.51542C19.7963 3.2649 19.7963 2.85873 19.5457 2.60821L17.3911 0.453598C17.1406 0.20308 16.7344 0.20308 16.4839 0.453598L12.6201 4.3174C12.466 4.47153 12.4007 4.69339 12.4467 4.90646L12.8295 6.67829C12.8827 6.92442 13.0749 7.11668 13.321 7.16986L15.0929 7.55264Z" fill="#EDAD47"/>
<path d="M4.90639 7.55264C4.69333 7.59867 4.47146 7.53335 4.31733 7.37922L0.453529 3.51542C0.203011 3.2649 0.203011 2.85873 0.453529 2.60821L2.60814 0.453598C2.85866 0.20308 3.26483 0.20308 3.51535 0.453598L7.37915 4.3174C7.53329 4.47153 7.5986 4.69339 7.55257 4.90646L7.16979 6.67829C7.11661 6.92442 6.92436 7.11668 6.67822 7.16986L4.90639 7.55264Z" fill="#EDAD47"/>
</svg>
