<svg version="1.1" xmlns="http://www.w3.org/2000/svg" xmlns:xlink="http://www.w3.org/1999/xlink" x="0px" y="0px"
	 viewBox="0 0 512 512" enable-background="new 0 0 512 512" xml:space="preserve">
<path fill="#0088A5" d="M512,97.209c-18.838,8.354-39.082,14.001-60.329,16.54c21.687-13,38.343-33.585,46.187-58.114
	c-20.299,12.038-42.778,20.779-66.705,25.489c-19.16-20.415-46.461-33.17-76.674-33.17c-58.012,0-105.043,47.029-105.043,105.039
	c0,8.233,0.929,16.25,2.72,23.939c-87.3-4.382-164.701-46.2-216.509-109.753c-9.042,15.514-14.224,33.558-14.224,52.809
	c0,36.444,18.544,68.596,46.73,87.433c-17.219-0.546-33.416-5.271-47.577-13.139c-0.01,0.438-0.01,0.878-0.01,1.321
	c0,50.894,36.209,93.348,84.261,103c-8.813,2.398-18.094,3.686-27.674,3.686c-6.77,0-13.349-0.66-19.764-1.887
	c13.367,41.73,52.159,72.104,98.126,72.949c-35.95,28.175-81.243,44.967-130.458,44.967c-8.479,0-16.841-0.497-25.059-1.471
	c46.486,29.806,101.701,47.197,161.021,47.197c193.211,0,298.868-160.063,298.868-298.873c0-4.554-0.104-9.084-0.305-13.59
	C480.11,136.773,497.918,118.273,512,97.209z"/>
</svg>
