<svg xmlns="http://www.w3.org/2000/svg" width="350" height="350">
  <!-- Outer circle -->
  <circle r="173.241" cx="175" cy="175" fill="#20364a"/>
  <!-- Outer rays -->
  <path d="m 175,30.740744 a 144.25926,144.25926 0 0 0 -33.67666,3.985897 L 175,175 Z" fill="#87738c"/>
  <path d="M 259.79346,58.29181 A 144.25926,144.25926 0 0 0 230.20563,41.72182 L 175,175 Z" fill="#87738c"/>
  <path d="M 312.19871,130.42144 A 144.25926,144.25926 0 0 0 298.00124,99.624745 L 175,175 Z" fill="#87738c"/>
  <path d="m 312.19871,219.57856 a 144.25926,144.25926 0 0 0 6.61585,-33.26011 L 175,175 Z" fill="#87738c"/>
  <path d="M 259.79346,291.70819 A 144.25926,144.25926 0 0 0 284.6956,268.6889 L 175,175 Z" fill="#87738c"/>
  <path d="m 175,319.25926 a 144.25926,144.25926 0 0 0 33.67665,-3.9859 L 175,175 Z" fill="#87738c"/>
  <path d="m 90.206536,291.70819 a 144.25926,144.25926 0 0 0 29.587834,16.56999 L 175,175 Z" fill="#87738c"/>
  <path d="m 37.801291,219.57856 a 144.25926,144.25926 0 0 0 14.197472,30.79669 L 175,175 Z" fill="#87738c"/>
  <path d="m 37.801291,130.42144 a 144.25926,144.25926 0 0 0 -6.615846,33.26011 L 175,175 Z" fill="#87738c"/>
  <path d="M 90.206536,58.29181 A 144.25926,144.25926 0 0 0 65.304396,81.311103 L 175,175 Z" fill="#87738c"/>
  <path d="M 124.67761,20.12359 A 162.84669,162.84669 0 0 0 89.912837,36.15037 L 175,175 Z" fill="#87738c"/>
  <path d="M 225.32239,20.12359 A 162.84669,162.84669 0 0 0 187.7768,12.65531 L 175,175 Z" fill="#87738c"/>
  <path d="M 306.74574,79.281116 A 162.84669,162.84669 0 0 0 280.76047,51.1704 L 175,175 Z" fill="#87738c"/>
  <path d="m 337.84669,175 a 162.84669,162.84669 0 0 0 -4.49947,-38.01581 L 175,175 Z" fill="#87738c"/>
  <path d="m 306.74574,270.71888 a 162.84669,162.84669 0 0 0 18.70499,-33.40015 L 175,175 Z" fill="#87738c"/>
  <path d="m 225.32239,329.87641 a 162.84669,162.84669 0 0 0 34.76477,-16.02678 L 175,175 Z" fill="#87738c"/>
  <path d="m 124.67761,329.87641 a 162.84669,162.84669 0 0 0 37.54559,7.46828 L 175,175 Z" fill="#87738c"/>
  <path d="M 43.25426,270.71888 A 162.84669,162.84669 0 0 0 69.23953,298.8296 L 175,175 Z" fill="#87738c"/>
  <path d="m 12.15331,175 a 162.84669,162.84669 0 0 0 4.49947,38.0158 L 175,175 Z" fill="#87738c"/>
  <path d="M 43.25426,79.281116 A 162.84669,162.84669 0 0 0 24.54927,112.68127 L 175,175 Z" fill="#87738c"/>
  <!-- Middle rays -->
  <path d="m 175,65.634361 a 109.36564,109.36564 0 0 0 -25.5309,3.021781 L 175,175 Z" fill="#e7a59a"/>
  <path d="M 239.28351,86.521338 A 109.36564,109.36564 0 0 0 216.85242,73.959321 L 175,175 Z" fill="#e7a59a"/>
  <path d="M 279.01291,141.20416 A 109.36564,109.36564 0 0 0 268.24954,117.85661 L 175,175 Z" fill="#e7a59a"/>
  <path d="m 279.01291,208.79584 a 109.36564,109.36564 0 0 0 5.0156,-25.21511 L 175,175 Z" fill="#e7a59a"/>
  <path d="m 239.28351,263.47866 a 109.36564,109.36564 0 0 0 18.87877,-17.45135 L 175,175 Z" fill="#e7a59a"/>
  <path d="m 175,284.36564 a 109.36564,109.36564 0 0 0 25.5309,-3.02178 L 175,175 Z" fill="#e7a59a"/>
  <path d="m 110.71649,263.47866 a 109.36564,109.36564 0 0 0 22.43109,12.56202 L 175,175 Z" fill="#e7a59a"/>
  <path d="m 70.987095,208.79584 a 109.36564,109.36564 0 0 0 10.763368,23.34755 L 175,175 Z" fill="#e7a59a"/>
  <path d="m 70.987095,141.20416 a 109.36564,109.36564 0 0 0 -5.015602,25.21511 L 175,175 Z" fill="#e7a59a"/>
  <path d="M 110.71649,86.521338 A 109.36564,109.36564 0 0 0 91.837715,103.9727 L 175,175 Z" fill="#e7a59a"/>
  <path d="M 136.84965,57.5853 A 123.45712,123.45712 0 0 0 110.49383,69.7355 L 175,175 Z" fill="#e7a59a"/>
  <path d="M 213.15035,57.5853 A 123.45712,123.45712 0 0 0 184.68633,51.92345 L 175,175 Z" fill="#e7a59a"/>
  <path d="M 274.87891,102.43372 A 123.45712,123.45712 0 0 0 255.17899,81.122468 L 175,175 Z" fill="#e7a59a"/>
  <path d="m 298.45712,175 a 123.45712,123.45712 0 0 0 -3.41113,-28.82049 L 175,175 Z" fill="#e7a59a"/>
  <path d="M 274.87891,247.56628 A 123.45712,123.45712 0 0 0 289.05951,222.245 L 175,175 Z" fill="#e7a59a"/>
  <path d="m 213.15035,292.4147 a 123.45712,123.45712 0 0 0 26.35582,-12.1502 L 175,175 Z" fill="#e7a59a"/>
  <path d="m 136.84965,292.4147 a 123.45712,123.45712 0 0 0 28.46402,5.66185 L 175,175 Z" fill="#e7a59a"/>
  <path d="m 75.12109,247.56628 a 123.45712,123.45712 0 0 0 19.699923,21.31125 L 175,175 Z" fill="#e7a59a"/>
  <path d="m 51.54288,175 a 123.45712,123.45712 0 0 0 3.41113,28.82049 L 175,175 Z" fill="#e7a59a"/>
  <path d="M 75.12109,102.43372 A 123.45712,123.45712 0 0 0 60.94049,127.755 L 175,175 Z" fill="#e7a59a"/>
  <!-- Inner rays -->
  <path d="M 175,90.932447 A 84.067553,84.067553 0 0 0 155.37482,93.25524 L 175,175 Z" fill="#ffbc95"/>
  <path d="M 224.41367,106.98792 A 84.067553,84.067553 0 0 0 207.17126,97.331708 L 175,175 Z" fill="#ffbc95"/>
  <path d="m 254.95299,149.0217 a 84.067553,84.067553 0 0 0 -8.27362,-17.94688 L 175,175 Z" fill="#ffbc95"/>
  <path d="m 254.95299,200.9783 a 84.067553,84.067553 0 0 0 3.85541,-19.38244 L 175,175 Z" fill="#ffbc95"/>
  <path d="m 224.41367,243.01208 a 84.067553,84.067553 0 0 0 14.5118,-13.41457 L 175,175 Z" fill="#ffbc95"/>
  <path d="m 175,259.06755 a 84.067553,84.067553 0 0 0 19.62518,-2.32279 L 175,175 Z" fill="#ffbc95"/>
  <path d="m 125.58633,243.01208 a 84.067553,84.067553 0 0 0 17.24241,9.65621 L 175,175 Z" fill="#ffbc95"/>
  <path d="m 95.047006,200.9783 a 84.067553,84.067553 0 0 0 8.273624,17.94688 L 175,175 Z" fill="#ffbc95"/>
  <path d="m 95.047006,149.0217 a 84.067553,84.067553 0 0 0 -3.855407,19.38244 L 175,175 Z" fill="#ffbc95"/>
  <path d="m 125.58633,106.98792 a 84.067553,84.067553 0 0 0 -14.5118,13.41457 L 175,175 Z" fill="#ffbc95"/>
  <path d="m 149.0217,95.047006 a 84.067553,84.067553 0 0 0 -17.94688,8.273624 L 175,175 Z" fill="#ffbc95"/>
  <path d="M 200.9783,95.047006 A 84.067553,84.067553 0 0 0 181.59586,91.191599 L 175,175 Z" fill="#ffbc95"/>
  <path d="m 243.01208,125.58633 a 84.067553,84.067553 0 0 0 -13.41457,-14.5118 L 175,175 Z" fill="#ffbc95"/>
  <path d="m 259.06755,175 a 84.067553,84.067553 0 0 0 -2.32279,-19.62518 L 175,175 Z" fill="#ffbc95"/>
  <path d="m 243.01208,224.41367 a 84.067553,84.067553 0 0 0 9.65621,-17.24241 L 175,175 Z" fill="#ffbc95"/>
  <path d="m 200.9783,254.95299 a 84.067553,84.067553 0 0 0 17.94688,-8.27362 L 175,175 Z" fill="#ffbc95"/>
  <path d="m 149.0217,254.95299 a 84.067553,84.067553 0 0 0 19.38244,3.85541 L 175,175 Z" fill="#ffbc95"/>
  <path d="m 106.98792,224.41367 a 84.067553,84.067553 0 0 0 13.41457,14.5118 L 175,175 Z" fill="#ffbc95"/>
  <path d="m 90.932447,175 a 84.067553,84.067553 0 0 0 2.322793,19.62518 L 175,175 Z" fill="#ffbc95"/>
  <path d="m 106.98792,125.58633 a 84.067553,84.067553 0 0 0 -9.656212,17.24241 L 175,175 Z" fill="#ffbc95"/>
  <!-- Inner circle -->
  <circle r="69.296" cx="175" cy="175" fill="#20364a"/>
</svg>
