<?xml version="1.0" encoding="UTF-8"?>
<!-- generated via js here: https://observablehq.com/@decentralion/sourcecred-logo-explorations -->
<svg width="512px" height="512px" version="1.1" xmlns="http://www.w3.org/2000/svg" xmlns:xlink="http://www.w3.org/1999/xlink">
<g transform="translate(256, 256)"><circle fill="#20364a" r="253.4270703772586"></circle><circle fill="#20364a" r="88.6994746320405"></circle><path d="M6.983069637483016e-15,-114.04218166976636A114.04218166976636,114.04218166976636,0,0,1,26.622618594819883,-110.89118711220809L20.706481129304354,-86.24870108727296A88.6994746320405,88.6994746320405,0,0,0,5.431276384709013e-15,-88.6994746320405Z" fill="#ffbc95"></path><path d="M1.0862552769418026e-14,-177.398949264081A177.398949264081,177.398949264081,0,0,1,41.41296225860871,-172.49740217454593L26.622618594819883,-110.89118711220809A114.04218166976636,114.04218166976636,0,0,0,6.983069637483016e-15,-114.04218166976636Z" fill="#e7a59a"></path><path d="M1.3966139274966033e-14,-228.08436333953273A228.08436333953273,228.08436333953273,0,0,1,53.24523718963977,-221.78237422441617L41.41296225860871,-172.49740217454593A177.398949264081,177.398949264081,0,0,0,1.0862552769418026e-14,-177.398949264081Z" fill="#87738c"></path><path d="M35.24097221155293,-108.46056000954701A114.04218166976636,114.04218166976636,0,0,1,59.58687623952842,-97.23694452220883L46.34534818629989,-75.62873462838465A88.6994746320405,88.6994746320405,0,0,0,27.409645053430054,-84.3582133407588Z" fill="#ffbc95"></path><path d="M48.945794738267956,-150.63966667992642A158.39191898578662,158.39191898578662,0,0,1,82.75955033267836,-135.05131183640114L59.58687623952842,-97.23694452220883A114.04218166976636,114.04218166976636,0,0,0,35.24097221155293,-108.46056000954701Z" fill="#e7a59a"></path><path d="M63.04218362288913,-194.0238906837452A204.00879165369315,204.00879165369315,0,0,1,106.59430082848974,-173.94608964528467L82.75955033267836,-135.05131183640114A158.39191898578662,158.39191898578662,0,0,0,48.945794738267956,-150.63966667992642Z" fill="#87738c"></path><path d="M67.03231252474768,-92.26206304643611A114.04218166976636,114.04218166976636,0,0,1,86.71835527173285,-74.064472312746L67.4476096557922,-57.60570068769134A88.6994746320405,88.6994746320405,0,0,0,52.13624307480375,-71.75938236945031Z" fill="#ffbc95"></path><path d="M104.2724861496075,-143.51876473890061A177.398949264081,177.398949264081,0,0,1,134.8952193115844,-115.21140137538268L86.71835527173285,-74.064472312746A114.04218166976636,114.04218166976636,0,0,0,67.03231252474768,-92.26206304643611Z" fill="#e7a59a"></path><path d="M134.06462504949536,-184.52412609287222A228.08436333953273,228.08436333953273,0,0,1,173.4367105434657,-148.128944625492L134.8952193115844,-115.21140137538268A177.398949264081,177.398949264081,0,0,0,104.2724861496075,-143.51876473890061Z" fill="#87738c"></path><path d="M92.26206304643611,-67.03231252474768A114.04218166976636,114.04218166976636,0,0,1,105.36123748763099,-43.64205351578932L81.94762915704632,-33.94381940116947A88.6994746320405,88.6994746320405,0,0,0,71.75938236945031,-52.13624307480375Z" fill="#ffbc95"></path><path d="M128.14175423116126,-93.10043406214955A158.39191898578662,158.39191898578662,0,0,1,146.33505206615413,-60.61396321637405L105.36123748763099,-43.64205351578932A114.04218166976636,114.04218166976636,0,0,0,92.26206304643611,-67.03231252474768Z" fill="#e7a59a"></path><path d="M165.0465794497357,-119.91335907204862A204.00879165369315,204.00879165369315,0,0,1,188.47954706120652,-78.07078462268977L146.33505206615413,-60.61396321637405A158.39191898578662,158.39191898578662,0,0,0,128.14175423116126,-93.10043406214955Z" fill="#87738c"></path><path d="M108.46056000954701,-35.24097221155292A114.04218166976636,114.04218166976636,0,0,1,113.69062768333248,-8.947646448640484L88.42604375370304,-6.95928057116482A88.6994746320405,88.6994746320405,0,0,0,84.3582133407588,-27.40964505343005Z" fill="#ffbc95"></path><path d="M168.7164266815176,-54.8192901068601A177.398949264081,177.398949264081,0,0,1,176.85208750740608,-13.91856114232964L113.69062768333248,-8.947646448640484A114.04218166976636,114.04218166976636,0,0,0,108.46056000954701,-35.24097221155292Z" fill="#e7a59a"></path><path d="M216.92112001909402,-70.48194442310584A228.08436333953273,228.08436333953273,0,0,1,227.38125536666496,-17.895292897280967L176.85208750740608,-13.91856114232964A177.398949264081,177.398949264081,0,0,0,168.7164266815176,-54.8192901068601Z" fill="#87738c"></path><path d="M114.04218166976636,0A114.04218166976636,114.04218166976636,0,0,1,110.89118711220809,26.622618594819873L86.24870108727296,20.706481129304347A88.6994746320405,88.6994746320405,0,0,0,88.6994746320405,0Z" fill="#ffbc95"></path><path d="M158.39191898578662,0A158.39191898578662,158.39191898578662,0,0,1,154.01553765584455,36.975859159472044L110.89118711220809,26.622618594819873A114.04218166976636,114.04218166976636,0,0,0,114.04218166976636,0Z" fill="#e7a59a"></path><path d="M204.00879165369315,0A204.00879165369315,204.00879165369315,0,0,1,198.37201250072778,47.62490659739999L154.01553765584455,36.975859159472044A158.39191898578662,158.39191898578662,0,0,0,158.39191898578662,0Z" fill="#87738c"></path><path d="M108.46056000954701,35.24097221155292A114.04218166976636,114.04218166976636,0,0,1,97.23694452220884,59.58687623952841L75.62873462838466,46.34534818629987A88.6994746320405,88.6994746320405,0,0,0,84.3582133407588,27.40964505343005Z" fill="#ffbc95"></path><path d="M168.7164266815176,54.8192901068601A177.398949264081,177.398949264081,0,0,1,151.25746925676933,92.69069637259975L97.23694452220884,59.58687623952841A114.04218166976636,114.04218166976636,0,0,0,108.46056000954701,35.24097221155292Z" fill="#e7a59a"></path><path d="M216.92112001909402,70.48194442310584A228.08436333953273,228.08436333953273,0,0,1,194.4738890444177,119.17375247905682L151.25746925676933,92.69069637259975A177.398949264081,177.398949264081,0,0,0,168.7164266815176,54.8192901068601Z" fill="#87738c"></path><path d="M92.26206304643611,67.03231252474768A114.04218166976636,114.04218166976636,0,0,1,74.064472312746,86.71835527173285L57.60570068769134,67.4476096557922A88.6994746320405,88.6994746320405,0,0,0,71.75938236945031,52.13624307480375Z" fill="#ffbc95"></path><path d="M128.14175423116126,93.10043406214955A158.39191898578662,158.39191898578662,0,0,1,102.86732265659168,120.44216009962895L74.064472312746,86.71835527173285A114.04218166976636,114.04218166976636,0,0,0,92.26206304643611,67.03231252474768Z" fill="#e7a59a"></path><path d="M165.0465794497357,119.91335907204862A204.00879165369315,204.00879165369315,0,0,1,132.49311158169007,155.12950220832207L102.86732265659168,120.44216009962895A158.39191898578662,158.39191898578662,0,0,0,128.14175423116126,93.10043406214955Z" fill="#87738c"></path><path d="M67.03231252474768,92.26206304643611A114.04218166976636,114.04218166976636,0,0,1,43.64205351578932,105.36123748763099L33.94381940116948,81.94762915704632A88.6994746320405,88.6994746320405,0,0,0,52.13624307480375,71.75938236945031Z" fill="#ffbc95"></path><path d="M104.2724861496075,143.51876473890061A177.398949264081,177.398949264081,0,0,1,67.88763880233896,163.89525831409264L43.64205351578932,105.36123748763099A114.04218166976636,114.04218166976636,0,0,0,67.03231252474768,92.26206304643611Z" fill="#e7a59a"></path><path d="M134.06462504949536,184.52412609287222A228.08436333953273,228.08436333953273,0,0,1,87.28410703157864,210.72247497526197L67.88763880233896,163.89525831409264A177.398949264081,177.398949264081,0,0,0,104.2724861496075,143.51876473890061Z" fill="#87738c"></path><path d="M35.24097221155293,108.46056000954701A114.04218166976636,114.04218166976636,0,0,1,8.947646448640489,113.69062768333248L6.959280571164825,88.42604375370304A88.6994746320405,88.6994746320405,0,0,0,27.409645053430054,84.3582133407588Z" fill="#ffbc95"></path><path d="M48.945794738267956,150.63966667992642A158.39191898578662,158.39191898578662,0,0,1,12.427286734222902,157.903649560184L8.947646448640489,113.69062768333248A114.04218166976636,114.04218166976636,0,0,0,35.24097221155293,108.46056000954701Z" fill="#e7a59a"></path><path d="M63.04218362288913,194.0238906837452A204.00879165369315,204.00879165369315,0,0,1,16.0063453136791,203.379900633517L12.427286734222902,157.903649560184A158.39191898578662,158.39191898578662,0,0,0,48.945794738267956,150.63966667992642Z" fill="#87738c"></path><path d="M6.983069637483016e-15,114.04218166976636A114.04218166976636,114.04218166976636,0,0,1,-26.622618594819865,110.8911871122081L-20.70648112930434,86.24870108727296A88.6994746320405,88.6994746320405,0,0,0,5.431276384709013e-15,88.6994746320405Z" fill="#ffbc95"></path><path d="M1.0862552769418026e-14,177.398949264081A177.398949264081,177.398949264081,0,0,1,-41.41296225860868,172.49740217454593L-26.622618594819865,110.8911871122081A114.04218166976636,114.04218166976636,0,0,0,6.983069637483016e-15,114.04218166976636Z" fill="#e7a59a"></path><path d="M1.3966139274966033e-14,228.08436333953273A228.08436333953273,228.08436333953273,0,0,1,-53.24523718963973,221.7823742244162L-41.41296225860868,172.49740217454593A177.398949264081,177.398949264081,0,0,0,1.0862552769418026e-14,177.398949264081Z" fill="#87738c"></path><path d="M-35.240972211552965,108.460560009547A114.04218166976636,114.04218166976636,0,0,1,-59.58687623952845,97.23694452220882L-46.3453481862999,75.62873462838463A88.6994746320405,88.6994746320405,0,0,0,-27.409645053430086,84.35821334075878Z" fill="#ffbc95"></path><path d="M-48.945794738268006,150.6396666799264A158.39191898578662,158.39191898578662,0,0,1,-82.7595503326784,135.05131183640114L-59.58687623952845,97.23694452220882A114.04218166976636,114.04218166976636,0,0,0,-35.240972211552965,108.460560009547Z" fill="#e7a59a"></path><path d="M-63.04218362288919,194.02389068374518A204.00879165369315,204.00879165369315,0,0,1,-106.59430082848978,173.94608964528464L-82.7595503326784,135.05131183640114A158.39191898578662,158.39191898578662,0,0,0,-48.945794738268006,150.6396666799264Z" fill="#87738c"></path><path d="M-67.03231252474767,92.26206304643611A114.04218166976636,114.04218166976636,0,0,1,-86.7183552717328,74.06447231274606L-67.44760965579218,57.60570068769138A88.6994746320405,88.6994746320405,0,0,0,-52.13624307480374,71.75938236945031Z" fill="#ffbc95"></path><path d="M-104.27248614960747,143.51876473890061A177.398949264081,177.398949264081,0,0,1,-134.89521931158436,115.21140137538276L-86.7183552717328,74.06447231274606A114.04218166976636,114.04218166976636,0,0,0,-67.03231252474767,92.26206304643611Z" fill="#e7a59a"></path><path d="M-134.06462504949533,184.52412609287222A228.08436333953273,228.08436333953273,0,0,1,-173.4367105434656,148.12894462549212L-134.89521931158436,115.21140137538276A177.398949264081,177.398949264081,0,0,0,-104.27248614960747,143.51876473890061Z" fill="#87738c"></path><path d="M-92.2620630464361,67.0323125247477A114.04218166976636,114.04218166976636,0,0,1,-105.36123748763096,43.64205351578938L-81.9476291570463,33.94381940116951A88.6994746320405,88.6994746320405,0,0,0,-71.7593823694503,52.13624307480376Z" fill="#ffbc95"></path><path d="M-128.14175423116126,93.10043406214957A158.39191898578662,158.39191898578662,0,0,1,-146.3350520661541,60.61396321637413L-105.36123748763096,43.64205351578938A114.04218166976636,114.04218166976636,0,0,0,-92.2620630464361,67.0323125247477Z" fill="#e7a59a"></path><path d="M-165.04657944973567,119.91335907204864A204.00879165369315,204.00879165369315,0,0,1,-188.4795470612065,78.07078462268987L-146.3350520661541,60.61396321637413A158.39191898578662,158.39191898578662,0,0,0,-128.14175423116126,93.10043406214957Z" fill="#87738c"></path><path d="M-108.46056000954701,35.240972211552936A114.04218166976636,114.04218166976636,0,0,1,-113.69062768333248,8.947646448640548L-88.42604375370304,6.959280571164871A88.6994746320405,88.6994746320405,0,0,0,-84.3582133407588,27.40964505343006Z" fill="#ffbc95"></path><path d="M-168.7164266815176,54.81929010686012A177.398949264081,177.398949264081,0,0,1,-176.85208750740608,13.918561142329741L-113.69062768333248,8.947646448640548A114.04218166976636,114.04218166976636,0,0,0,-108.46056000954701,35.240972211552936Z" fill="#e7a59a"></path><path d="M-216.92112001909402,70.48194442310587A228.08436333953273,228.08436333953273,0,0,1,-227.38125536666496,17.895292897281095L-176.85208750740608,13.918561142329741A177.398949264081,177.398949264081,0,0,0,-168.7164266815176,54.81929010686012Z" fill="#87738c"></path><path d="M-114.04218166976636,1.3966139274966033e-14A114.04218166976636,114.04218166976636,0,0,1,-110.89118711220812,-26.622618594819812L-86.24870108727298,-20.7064811293043A88.6994746320405,88.6994746320405,0,0,0,-88.6994746320405,1.0862552769418026e-14Z" fill="#ffbc95"></path><path d="M-158.39191898578662,1.9397415659675046e-14A158.39191898578662,158.39191898578662,0,0,1,-154.0155376558446,-36.97585915947196L-110.89118711220812,-26.622618594819812A114.04218166976636,114.04218166976636,0,0,0,-114.04218166976636,1.3966139274966033e-14Z" fill="#e7a59a"></path><path d="M-204.00879165369315,2.498387136966146e-14A204.00879165369315,204.00879165369315,0,0,1,-198.37201250072783,-47.624906597399885L-154.0155376558446,-36.97585915947196A158.39191898578662,158.39191898578662,0,0,0,-158.39191898578662,1.9397415659675046e-14Z" fill="#87738c"></path><path d="M-108.46056000954702,-35.24097221155291A114.04218166976636,114.04218166976636,0,0,1,-97.23694452220887,-59.58687623952836L-75.62873462838468,-46.34534818629984A88.6994746320405,88.6994746320405,0,0,0,-84.3582133407588,-27.40964505343004Z" fill="#ffbc95"></path><path d="M-168.7164266815176,-54.81929010686008A177.398949264081,177.398949264081,0,0,1,-151.25746925676935,-92.69069637259967L-97.23694452220887,-59.58687623952836A114.04218166976636,114.04218166976636,0,0,0,-108.46056000954702,-35.24097221155291Z" fill="#e7a59a"></path><path d="M-216.92112001909405,-70.48194442310582A228.08436333953273,228.08436333953273,0,0,1,-194.47388904441775,-119.17375247905672L-151.25746925676935,-92.69069637259967A177.398949264081,177.398949264081,0,0,0,-168.7164266815176,-54.81929010686008Z" fill="#87738c"></path><path d="M-92.26206304643611,-67.03231252474767A114.04218166976636,114.04218166976636,0,0,1,-74.06447231274606,-86.7183552717328L-57.60570068769138,-67.44760965579218A88.6994746320405,88.6994746320405,0,0,0,-71.75938236945031,-52.13624307480374Z" fill="#ffbc95"></path><path d="M-128.14175423116126,-93.10043406214953A158.39191898578662,158.39191898578662,0,0,1,-102.86732265659175,-120.4421600996289L-74.06447231274606,-86.7183552717328A114.04218166976636,114.04218166976636,0,0,0,-92.26206304643611,-67.03231252474767Z" fill="#e7a59a"></path><path d="M-165.0465794497357,-119.91335907204859A204.00879165369315,204.00879165369315,0,0,1,-132.49311158169016,-155.129502208322L-102.86732265659175,-120.4421600996289A158.39191898578662,158.39191898578662,0,0,0,-128.14175423116126,-93.10043406214953Z" fill="#87738c"></path><path d="M-67.0323125247477,-92.2620630464361A114.04218166976636,114.04218166976636,0,0,1,-43.64205351578938,-105.36123748763096L-33.94381940116952,-81.9476291570463A88.6994746320405,88.6994746320405,0,0,0,-52.13624307480376,-71.7593823694503Z" fill="#ffbc95"></path><path d="M-104.27248614960752,-143.5187647389006A177.398949264081,177.398949264081,0,0,1,-67.88763880233904,-163.8952583140926L-43.64205351578938,-105.36123748763096A114.04218166976636,114.04218166976636,0,0,0,-67.0323125247477,-92.2620630464361Z" fill="#e7a59a"></path><path d="M-134.0646250494954,-184.5241260928722A228.08436333953273,228.08436333953273,0,0,1,-87.28410703157876,-210.72247497526192L-67.88763880233904,-163.8952583140926A177.398949264081,177.398949264081,0,0,0,-104.27248614960752,-143.5187647389006Z" fill="#87738c"></path><path d="M-35.24097221155294,-108.46056000954701A114.04218166976636,114.04218166976636,0,0,1,-8.947646448640555,-113.69062768333248L-6.959280571164876,-88.42604375370304A88.6994746320405,88.6994746320405,0,0,0,-27.409645053430065,-84.3582133407588Z" fill="#ffbc95"></path><path d="M-48.94579473826797,-150.63966667992642A158.39191898578662,158.39191898578662,0,0,1,-12.427286734222992,-157.903649560184L-8.947646448640555,-113.69062768333248A114.04218166976636,114.04218166976636,0,0,0,-35.24097221155294,-108.46056000954701Z" fill="#e7a59a"></path><path d="M-63.04218362288915,-194.0238906837452A204.00879165369315,204.00879165369315,0,0,1,-16.006345313679212,-203.379900633517L-12.427286734222992,-157.903649560184A158.39191898578662,158.39191898578662,0,0,0,-48.94579473826797,-150.63966667992642Z" fill="#87738c"></path></g>
</svg>
