<?xml version="1.0" encoding="UTF-8"?>
<svg width="349px" height="227px" viewBox="0 0 349 227" version="1.1" xmlns="http://www.w3.org/2000/svg" xmlns:xlink="http://www.w3.org/1999/xlink">
    <!-- Generator: Sketch 56.3 (81716) - https://sketch.com -->
    <title>sourcecred-logo-beta-stacked-color-eyes</title>
    <defs>
        <polygon id="path-1" points="0.4622 0.4284 41.8232 0.4284 41.8232 47 0.4622 47"></polygon>
        <polygon id="path-3" points="0.3872 0.81 149.4022 0.81 149.4022 149.8246 0.3872 149.8246"></polygon>
    </defs>
    <g id="sourcecred-logo-beta-stacked-color-eyes" stroke="none" stroke-width="1" fill="none" fill-rule="evenodd">
        <g id="Group-118" transform="translate(0.000000, 2.000000)">
            <g id="Group-74" transform="translate(0.000000, 0.190000)">
                <g id="Group-22" transform="translate(0.000000, 178.000000)">
                    <path d="M26.994,15.3948 L26.994,14.6598 C26.994,10.9178 24.055,8.7798 18.976,8.7798 C14.232,8.7798 11.359,10.5168 11.359,13.3238 C11.359,15.1948 12.695,16.4638 15.434,17.1318 L24.455,19.2038 C29.4,20.4068 32.14,21.6088 34.277,23.6138 C36.55,25.6848 37.685,28.5578 37.685,32.0988 C37.685,41.3208 30.602,46.9998 19.043,46.9998 C7.015,46.9998 0.066,41.2528 0,31.2968 L10.022,31.2968 C10.223,36.3748 13.097,38.6478 19.177,38.6478 C24.321,38.6478 27.462,36.7768 27.462,33.6358 C27.462,31.4308 25.858,29.8948 22.651,29.0928 L14.566,27.0878 C9.822,25.9528 6.882,24.6828 4.878,22.9458 C2.605,21.0748 1.336,17.7998 1.336,14.1918 C1.336,5.5728 7.951,0.4278 19.243,0.4278 C26.46,0.4278 31.538,2.5658 34.411,6.7758 C35.881,8.9808 36.616,11.3858 37.017,15.3948 L26.994,15.3948 Z" id="Fill-1" fill="#000000"></path>
                    <path d="M51.3123,29.8274 C51.3123,35.9084 54.0513,39.3154 58.9293,39.3154 C63.6733,39.3154 66.4803,35.9084 66.4803,30.0274 C66.4803,23.8134 63.8073,20.4064 58.8623,20.4064 C54.0513,20.4064 51.3123,23.8134 51.3123,29.8274 M76.0353,30.0954 C76.0353,39.8494 68.8183,46.8664 58.8623,46.8664 C48.8393,46.8664 41.7563,39.8494 41.7563,29.8274 C41.7563,19.8714 48.8393,12.8554 58.8623,12.8554 C69.0853,12.8554 76.0353,19.8054 76.0353,30.0954" id="Fill-3" fill="#000000"></path>
                    <path d="M110.6444,45.9973 L101.6234,45.9973 L101.6234,42.4563 C99.3524,45.6633 97.0134,46.8663 93.0714,46.8663 C89.7304,46.8663 86.6564,45.6633 84.5184,43.5253 C82.3134,41.3203 81.4454,38.5803 81.4454,33.9703 L81.4454,13.7243 L90.9324,13.7243 L90.9324,31.8983 C90.9324,35.0393 91.0664,35.8413 91.9354,36.9763 C92.8034,38.1803 94.3404,38.8483 96.0784,38.8483 C97.8154,38.8483 99.2854,38.1803 100.1544,36.9763 C101.0224,35.8413 101.1564,35.1053 101.1564,31.8983 L101.1564,13.7243 L110.6444,13.7243 L110.6444,45.9973 Z" id="Fill-5" fill="#000000"></path>
                    <path d="M127.0116,13.7239 L126.7446,19.4709 C128.6156,14.2589 131.0216,12.7889 137.9036,12.8559 L137.9036,21.8099 C136.7676,21.6759 136.2996,21.6759 135.4976,21.6759 C132.2236,21.6759 129.5506,23.1459 128.4816,25.5509 C127.5466,27.6899 127.2116,30.6969 127.2116,36.9109 L127.2116,45.9969 L117.7246,45.9969 L117.7246,13.7239 L127.0116,13.7239 Z" id="Fill-7" fill="#000000"></path>
                    <path d="M162.2899,25.3508 C161.7559,22.2768 159.6169,20.5398 156.4099,20.5398 C152.0669,20.5398 149.7279,23.8138 149.7279,29.6938 C149.7279,35.9088 152.0669,39.1818 156.4769,39.1818 C159.8849,39.1818 161.7559,37.4448 162.4899,33.6358 L171.7119,34.1038 C170.3749,42.2558 164.7629,46.8668 156.2099,46.8668 C146.3879,46.8668 140.1729,40.3178 140.1729,29.9608 C140.1729,19.2698 146.3199,12.8558 156.5439,12.8558 C164.9629,12.8558 170.7089,17.6658 171.3109,25.3508 L162.2899,25.3508 Z" id="Fill-9" fill="#000000"></path>
                    <path d="M197.5672,25.9524 C197.1662,22.1434 194.9612,20.0724 191.2862,20.0724 C187.6112,20.0724 185.2062,22.1434 184.4702,25.9524 L197.5672,25.9524 Z M184.4042,32.6344 C185.0052,37.0444 187.6112,39.4494 191.6872,39.4494 C194.2262,39.4494 196.0302,38.5804 197.2992,36.5764 L206.9212,36.5764 C205.1182,42.8564 199.1042,46.8664 191.4202,46.8664 C181.4632,46.8664 174.8482,40.0514 174.8482,29.8944 C174.8482,19.8054 181.5972,12.8554 191.3532,12.8554 C198.1692,12.8554 203.3132,16.2644 205.7182,22.3444 C206.8552,25.1504 207.3222,28.1574 207.3222,32.6344 L184.4042,32.6344 Z" id="Fill-11" fill="#000000"></path>
                    <g id="Group-15" transform="translate(211.000000, 0.000000)">
                        <mask id="mask-2" fill="white">
                            <use xlink:href="#path-1"></use>
                        </mask>
                        <g id="Clip-14"></g>
                        <path d="M31.0652,15.6624 C30.0632,11.3864 26.7892,8.9134 22.0442,8.9134 C14.6952,8.9134 10.4852,14.3254 10.4852,23.6804 C10.4852,32.9684 14.6952,38.5144 21.7782,38.5144 C26.9222,38.5144 29.9972,35.9744 31.1992,30.6294 L41.8232,30.6294 C40.6212,40.7194 33.0702,47.0004 22.0442,47.0004 C8.8812,47.0004 0.4622,37.9124 0.4622,23.6804 C0.4622,9.3814 8.7482,0.4284 21.9782,0.4284 C32.7362,0.4284 40.0862,6.1744 41.2892,15.6624 L31.0652,15.6624 Z" id="Fill-13" fill="#000000" mask="url(#mask-2)"></path>
                    </g>
                    <path d="M266.7859,13.7239 L266.5189,19.4709 C268.3899,14.2589 270.7959,12.7889 277.6779,12.8559 L277.6779,21.8099 C276.5419,21.6759 276.0739,21.6759 275.2719,21.6759 C271.9979,21.6759 269.3249,23.1459 268.2569,25.5509 C267.3209,27.6899 266.9859,30.6969 266.9859,36.9109 L266.9859,45.9969 L257.4989,45.9969 L257.4989,13.7239 L266.7859,13.7239 Z" id="Fill-16" fill="#000000"></path>
                    <path d="M302.5994,25.9524 C302.1984,22.1434 299.9934,20.0724 296.3184,20.0724 C292.6434,20.0724 290.2384,22.1434 289.5024,25.9524 L302.5994,25.9524 Z M289.4364,32.6344 C290.0374,37.0444 292.6434,39.4494 296.7194,39.4494 C299.2584,39.4494 301.0624,38.5804 302.3314,36.5764 L311.9534,36.5764 C310.1504,42.8564 304.1364,46.8664 296.4524,46.8664 C286.4954,46.8664 279.8804,40.0514 279.8804,29.8944 C279.8804,19.8054 286.6294,12.8554 296.3854,12.8554 C303.2014,12.8554 308.3454,16.2644 310.7504,22.3444 C311.8874,25.1504 312.3544,28.1574 312.3544,32.6344 L289.4364,32.6344 Z" id="Fill-18" fill="#000000"></path>
                    <path d="M325.5828,29.8274 C325.5828,35.5074 328.2548,39.1814 332.3978,39.1814 C336.4738,39.1814 339.2138,35.4404 339.2138,29.9614 C339.2138,24.2154 336.5408,20.4734 332.3978,20.4734 C328.2548,20.4734 325.5828,24.1474 325.5828,29.8274 L325.5828,29.8274 Z M348.3668,45.9974 L339.2798,45.9974 L339.2798,42.5224 C336.8748,45.6634 334.3358,46.8664 330.3938,46.8664 C321.9068,46.8664 316.2278,40.1174 316.2278,29.8944 C316.2278,19.6044 321.9748,12.7894 330.6608,12.7894 C334.1358,12.7894 336.6068,13.7914 338.8788,16.1304 L338.8788,1.4304 L348.3668,1.4304 L348.3668,45.9974 Z" id="Fill-20" fill="#000000"></path>
                </g>
                <g id="Group-25" transform="translate(101.000000, 0.000000)">
                    <mask id="mask-4" fill="white">
                        <use xlink:href="#path-3"></use>
                    </mask>
                    <g id="Clip-24"></g>
                    <path d="M149.4022,75.3176 C149.4022,116.4656 116.0442,149.8246 74.8942,149.8246 C33.7452,149.8246 0.3872,116.4656 0.3872,75.3176 C0.3872,34.1686 33.7452,0.8096 74.8942,0.8096 C116.0442,0.8096 149.4022,34.1686 149.4022,75.3176" id="Fill-23" fill="#000000" mask="url(#mask-4)"></path>
                </g>
                <path d="M175.9012,49.3704 C176.6642,49.3704 177.4172,49.4104 178.1632,49.4744 L181.5762,10.4674 C179.7042,10.3054 177.8142,10.2054 175.9012,10.2054 C173.9872,10.2054 172.0982,10.3054 170.2262,10.4674 L173.6392,49.4744 C174.3852,49.4104 175.1382,49.3704 175.9012,49.3704" id="Fill-26" fill="#70DC00"></path>
                <path d="M162.532,53.0764 L142.359,19.5034 C139.103,21.4644 136.042,23.7114 133.189,26.1924 L158.877,55.7424 C160.013,54.7534 161.234,53.8574 162.532,53.0764" id="Fill-28" fill="#70DC00"></path>
                <path d="M152.0027,65.1829 L115.9437,49.8759 C114.4747,53.3319 113.3127,56.9479 112.4547,60.6789 L150.6117,69.4889 C150.9537,68.0009 151.4177,66.5599 152.0027,65.1829" id="Fill-30" fill="#70DC00"></path>
                <path d="M150.6121,81.1653 L112.4551,89.9753 C113.3121,93.7063 114.4741,97.3213 115.9441,100.7773 L152.0031,85.4713 C151.4181,84.0933 150.9541,82.6523 150.6121,81.1653" id="Fill-32" fill="#70DC00"></path>
                <path d="M158.8768,94.9114 L133.1898,124.4614 C136.0418,126.9424 139.1038,129.1894 142.3588,131.1494 L162.5318,97.5774 C161.2338,96.7954 160.0138,95.9004 158.8768,94.9114" id="Fill-34" fill="#70DC00"></path>
                <path d="M175.9012,101.2834 C175.1382,101.2834 174.3852,101.2434 173.6392,101.1794 L170.2262,140.1864 C172.0982,140.3474 173.9872,140.4474 175.9012,140.4474 C177.8142,140.4474 179.7042,140.3474 181.5762,140.1864 L178.1632,101.1794 C177.4172,101.2434 176.6642,101.2834 175.9012,101.2834" id="Fill-36" fill="#70DC00"></path>
                <path d="M189.2703,97.5774 L209.4433,131.1494 C212.6993,129.1894 215.7603,126.9424 218.6133,124.4614 L192.9253,94.9114 C191.7893,95.9004 190.5683,96.7954 189.2703,97.5774" id="Fill-38" fill="#70DC00"></path>
                <path d="M201.1902,81.1653 C200.8472,82.6523 200.3842,84.0933 199.7992,85.4713 L235.8582,100.7773 C237.3272,97.3213 238.4892,93.7063 239.3472,89.9753 L201.1902,81.1653 Z" id="Fill-40" fill="#70DC00"></path>
                <path d="M201.1902,69.4885 L239.3472,60.6785 C238.4892,56.9475 237.3272,53.3325 235.8582,49.8765 L199.7992,65.1825 C200.3842,66.5595 200.8472,68.0015 201.1902,69.4885" id="Fill-42" fill="#70DC00"></path>
                <path d="M192.9256,55.7424 L218.6126,26.1924 C215.7606,23.7104 212.6986,21.4644 209.4436,19.5034 L189.2706,53.0764 C190.5686,53.8574 191.7886,54.7534 192.9256,55.7424" id="Fill-44" fill="#70DC00"></path>
                <path d="M163.8777,23.2493 C160.8147,23.9533 157.8477,24.9073 155.0107,26.1123 L165.7707,51.4603 C167.1467,50.8753 168.5847,50.4133 170.0697,50.0713 L163.8777,23.2493 Z" id="Fill-46" fill="#70DC00"></path>
                <path d="M135.5711,40.2678 C133.5341,42.6098 131.6901,45.1218 130.0811,47.7948 L153.6801,61.9748 C154.4611,60.6788 155.3551,59.4598 156.3421,58.3258 L135.5711,40.2678 Z" id="Fill-48" fill="#70DC00"></path>
                <path d="M150.0828,73.0676 L122.6628,70.6696 C122.5298,72.2056 122.4488,73.7556 122.4488,75.3266 C122.4488,76.8976 122.5298,78.4486 122.6628,79.9846 L150.0828,77.5856 C150.0188,76.8406 149.9788,76.0886 149.9788,75.3266 C149.9788,74.5646 150.0188,73.8126 150.0828,73.0676" id="Fill-50" fill="#70DC00"></path>
                <path d="M130.0809,102.8586 C131.6899,105.5316 133.5339,108.0446 135.5709,110.3846 L156.3429,92.3286 C155.3549,91.1936 154.4609,89.9746 153.6809,88.6776 L130.0809,102.8586 Z" id="Fill-52" fill="#70DC00"></path>
                <path d="M155.0106,124.5403 C157.8476,125.7463 160.8156,126.7003 163.8776,127.4043 L170.0706,100.5823 C168.5846,100.2403 167.1466,99.7773 165.7706,99.1933 L155.0106,124.5403 Z" id="Fill-54" fill="#70DC00"></path>
                <path d="M187.9246,127.4045 C190.9876,126.7005 193.9536,125.7465 196.7906,124.5405 L186.0316,99.1935 C184.6556,99.7775 183.2166,100.2405 181.7316,100.5825 L187.9246,127.4045 Z" id="Fill-56" fill="#70DC00"></path>
                <path d="M216.2313,110.385 C218.2683,108.044 220.1123,105.531 221.7213,102.859 L198.1223,88.678 C197.3413,89.975 196.4473,91.194 195.4603,92.328 L216.2313,110.385 Z" id="Fill-58" fill="#70DC00"></path>
                <path d="M201.7186,77.5852 L229.1386,79.9842 C229.2716,78.4482 229.3536,76.8982 229.3536,75.3262 C229.3536,73.7562 229.2716,72.2052 229.1386,70.6692 L201.7186,73.0672 C201.7826,73.8132 201.8226,74.5642 201.8226,75.3262 C201.8226,76.0882 201.7826,76.8412 201.7186,77.5852" id="Fill-60" fill="#70DC00"></path>
                <path d="M221.7215,47.7952 C220.1125,45.1222 218.2685,42.6092 216.2315,40.2682 L195.4595,58.3252 C196.4475,59.4602 197.3415,60.6792 198.1215,61.9752 L221.7215,47.7952 Z" id="Fill-62" fill="#70DC00"></path>
                <path d="M196.7908,26.1125 C193.9538,24.9075 190.9868,23.9535 187.9248,23.2495 L181.7308,50.0715 C183.2178,50.4135 184.6558,50.8755 186.0318,51.4605 L196.7908,26.1125 Z" id="Fill-64" fill="#70DC00"></path>
                <path d="M178.7899,15.7708 C178.7899,17.3568 177.5039,18.6418 175.9179,18.6418 C174.3319,18.6418 173.0469,17.3568 173.0469,15.7708 C173.0469,14.1848 174.3319,12.8998 175.9179,12.8998 C177.5039,12.8998 178.7899,14.1848 178.7899,15.7708" id="Fill-66" fill="#FFFFFF"></path>
                <path d="M224.6932,72.9377 C226.0182,72.9377 227.0932,74.0117 227.0932,75.3367 C227.0932,76.6637 226.0182,77.7377 224.6932,77.7377 C223.3682,77.7377 222.2932,76.6637 222.2932,75.3367 C222.2932,74.0117 223.3682,72.9377 224.6932,72.9377" id="Fill-68" fill="#FFFFFF"></path>
                <path d="M137.8172,105.9348 C136.7452,106.7138 135.2442,106.4748 134.4652,105.4028 C133.6862,104.3298 133.9252,102.8298 134.9982,102.0498 C136.0712,101.2718 137.5712,101.5098 138.3502,102.5828 C139.1292,103.6558 138.8902,105.1568 137.8172,105.9348" id="Fill-70" fill="#FFFFFF"></path>
                <path d="M135.0311,48.5383 C133.9601,47.7583 133.7251,46.2563 134.5061,45.1853 C135.2871,44.1143 136.7881,43.8793 137.8591,44.6603 C138.9301,45.4403 139.1651,46.9423 138.3851,48.0133 C137.6031,49.0843 136.1021,49.3193 135.0311,48.5383" id="Fill-72" fill="#FFFFFF"></path>
            </g>
            <path d="M208.5428,125.409 C207.6118,124.125 207.8978,122.33 209.1818,121.398 C210.4658,120.468 212.2618,120.754 213.1918,122.037 C214.1228,123.321 213.8368,125.116 212.5538,126.048 C211.2698,126.978 209.4748,126.692 208.5428,125.409" id="Fill-75" fill="#FFFFFF"></path>
            <g id="Group-117" transform="translate(128.000000, 26.190000)" fill="#149906">
                <path d="M52.1824,0.386 C50.7684,0.264 49.3404,0.189 47.8944,0.189 C46.4534,0.189 45.0294,0.264 43.6194,0.385 L44.6434,12.097 L45.1564,17.947 C46.0594,17.869 46.9714,17.822 47.8944,17.822 C48.8234,17.822 49.7394,17.869 50.6464,17.948 L51.1584,12.098 L52.1824,0.386 Z" id="Fill-77"></path>
                <path d="M31.6727,22.3176 L22.5907,7.2026 C20.1337,8.6826 17.8227,10.3776 15.6707,12.2506 L27.2357,25.5536 C28.6157,24.3536 30.0967,23.2666 31.6727,22.3176" id="Fill-79"></path>
                <path d="M18.8934,37.0139 L2.6594,30.1219 C1.5504,32.7309 0.6744,35.4579 0.0284,38.2749 L17.2064,42.2409 C17.6224,40.4349 18.1834,38.6859 18.8934,37.0139" id="Fill-81"></path>
                <path d="M17.2108,56.4124 L17.2108,56.4124 L0.0318,60.3784 C0.6798,63.1934 1.5578,65.9214 2.6668,68.5274 L18.9008,61.6374 C18.1898,59.9654 17.6268,58.2174 17.2108,56.4124" id="Fill-83"></path>
                <path d="M27.2449,73.0881 L15.6809,86.3921 C17.8329,88.2641 20.1419,89.9581 22.5989,91.4371 L31.6809,76.3211 C30.1059,75.3741 28.6249,74.2881 27.2449,73.0881" id="Fill-85"></path>
                <path d="M51.1561,86.5364 L51.1571,86.5364 L50.6441,80.6864 C49.7371,80.7654 48.8221,80.8134 47.8941,80.8134 C46.9711,80.8134 46.0601,80.7654 45.1571,80.6864 L43.6211,98.2494 C45.0301,98.3704 46.4541,98.4464 47.8941,98.4464 C49.3411,98.4464 50.7671,98.3704 52.1811,98.2484 L51.1561,86.5364 Z" id="Fill-87"></path>
                <path d="M68.5516,73.0823 C67.1716,74.2823 65.6926,75.3683 64.1176,76.3153 L73.1996,91.4313 C75.6556,89.9523 77.9646,88.2583 80.1156,86.3863 L68.5516,73.0823 Z" id="Fill-89"></path>
                <path d="M95.7586,60.3752 L84.3016,57.7302 L78.5786,56.4092 C78.3706,57.3122 78.1266,58.1992 77.8456,59.0702 C77.5646,59.9412 77.2456,60.7962 76.8906,61.6322 L79.9896,62.9472 L93.1246,68.5222 C94.2336,65.9162 95.1106,63.1892 95.7586,60.3752" id="Fill-91"></path>
                <path d="M93.1326,30.1272 L78.8676,36.1822 L76.8976,37.0192 C77.6076,38.6902 78.1686,40.4392 78.5826,42.2432 L95.7626,38.2762 C95.1156,35.4622 94.2396,32.7342 93.1326,30.1272" id="Fill-93"></path>
                <path d="M80.1258,12.2571 C77.9738,10.3841 75.6648,8.6891 73.2078,7.2081 L64.1258,22.3231 L64.1268,22.3231 L64.1258,22.3231 C65.7008,23.2731 67.1818,24.3601 68.5608,25.5611 L68.5618,25.5611 L80.1258,12.2571 Z" id="Fill-95"></path>
                <path d="M40.8143,18.6301 L39.4933,12.9071 C37.3503,13.4001 35.2763,14.0671 33.2923,14.9091 L35.5873,20.3171 C37.2593,19.6071 39.0083,19.0451 40.8143,18.6301" id="Fill-97"></path>
                <path d="M24.1287,28.6614 L19.6967,24.8094 C18.2727,26.4464 16.9827,28.2044 15.8577,30.0734 L20.8937,33.0984 C21.8417,31.5224 22.9287,30.0424 24.1287,28.6614" id="Fill-99"></path>
                <path d="M16.3983,49.3176 C16.3983,48.3946 16.4463,47.4836 16.5243,46.5816 L10.6743,46.0696 C10.5823,47.1406 10.5253,48.2216 10.5253,49.3176 C10.5253,50.4196 10.5823,51.5056 10.6753,52.5836 L16.5263,52.0716 C16.4473,51.1636 16.3983,50.2466 16.3983,49.3176" id="Fill-101"></path>
                <path d="M20.9012,65.55 L15.8662,68.575 C16.9922,70.444 18.2822,72.199 19.7062,73.836 L24.1382,69.984 C22.9372,68.605 21.8502,67.124 20.9012,65.55" id="Fill-103"></path>
                <path d="M35.5945,78.3196 L33.2985,83.7276 C35.2825,84.5696 37.3565,85.2356 39.4965,85.7276 L40.8185,80.0056 C39.0135,79.5906 37.2655,79.0296 35.5945,78.3196" id="Fill-105"></path>
                <path d="M54.9832,80.0022 L56.3042,85.7252 C58.4452,85.2322 60.5182,84.5652 62.5012,83.7232 L60.2062,78.3152 C58.5352,79.0242 56.7872,79.5872 54.9832,80.0022" id="Fill-107"></path>
                <path d="M71.657,69.9778 L76.089,73.8298 C77.512,72.1938 78.802,70.4368 79.927,68.5698 L74.891,65.5438 C73.943,67.1188 72.856,68.5978 71.657,69.9778" id="Fill-109"></path>
                <path d="M79.3904,49.3176 C79.3904,50.2456 79.3424,51.1626 79.2634,52.0706 L85.1144,52.5826 C85.2064,51.5056 85.2644,50.4186 85.2644,49.3176 C85.2644,48.2216 85.2074,47.1416 85.1154,46.0716 L79.2644,46.5836 C79.3424,47.4846 79.3904,48.3956 79.3904,49.3176" id="Fill-111"></path>
                <path d="M74.8992,33.1047 L79.9342,30.0797 C78.8092,28.2097 77.5212,26.4527 76.0972,24.8157 L71.6662,28.6677 C72.8662,30.0477 73.9522,31.5297 74.8992,33.1047" id="Fill-113"></path>
                <path d="M60.2127,20.3225 L62.5087,14.9155 C60.5247,14.0715 58.4497,13.4035 56.3087,12.9105 L54.9867,18.6335 C56.7917,19.0485 58.5407,19.6115 60.2127,20.3225" id="Fill-115"></path>
            </g>
        </g>
    </g>
</svg>
