<?xml version="1.0" encoding="UTF-8"?>
<svg width="152px" height="155px" viewBox="0 0 152 155" version="1.1" xmlns="http://www.w3.org/2000/svg" xmlns:xlink="http://www.w3.org/1999/xlink">
    <!-- Generator: Sketch 56.3 (81716) - https://sketch.com -->
    <title>sourcecred-symbol-beta-color copy</title>
    <defs>
        <polygon id="path-1" points="0 0.986 149.014 0.986 149.014 150 0 150"></polygon>
    </defs>
    <g id="sourcecred-symbol-beta-color-copy" stroke="none" stroke-width="1" fill="none" fill-rule="evenodd">
        <g id="Group-96" transform="translate(1.000000, 2.000000)">
            <g id="Group-52" transform="translate(0.000000, 0.014000)">
                <g id="Group-3">
                    <mask id="mask-2" fill="white">
                        <use xlink:href="#path-1"></use>
                    </mask>
                    <g id="Clip-2"></g>
                    <path d="M149.0147,75.4932 C149.0147,116.6412 115.6567,150.0002 74.5067,150.0002 C33.3577,150.0002 -0.0003,116.6412 -0.0003,75.4932 C-0.0003,34.3442 33.3577,0.9852 74.5067,0.9852 C115.6567,0.9852 149.0147,34.3442 149.0147,75.4932" id="Fill-1" fill="#000000" mask="url(#mask-2)"></path>
                </g>
                <path d="M74.5138,49.546 C75.2768,49.546 76.0298,49.586 76.7758,49.65 L80.1888,10.643 C78.3168,10.481 76.4268,10.381 74.5138,10.381 C72.5998,10.381 70.7108,10.481 68.8388,10.643 L72.2518,49.65 C72.9978,49.586 73.7508,49.546 74.5138,49.546" id="Fill-4" fill="#70DC00"></path>
                <path d="M61.1446,53.252 L40.9716,19.679 C37.7156,21.64 34.6546,23.887 31.8016,26.368 L57.4896,55.918 C58.6256,54.929 59.8466,54.033 61.1446,53.252" id="Fill-6" fill="#70DC00"></path>
                <path d="M50.6153,65.3585 L14.5563,50.0515 C13.0873,53.5075 11.9253,57.1235 11.0673,60.8545 L49.2243,69.6645 C49.5663,68.1765 50.0303,66.7355 50.6153,65.3585" id="Fill-8" fill="#70DC00"></path>
                <path d="M49.2247,81.3409 L11.0677,90.1509 C11.9247,93.8819 13.0867,97.4969 14.5567,100.9529 L50.6157,85.6469 C50.0307,84.2689 49.5667,82.8279 49.2247,81.3409" id="Fill-10" fill="#70DC00"></path>
                <path d="M57.4893,95.087 L31.8023,124.637 C34.6543,127.118 37.7163,129.365 40.9713,131.325 L61.1443,97.753 C59.8463,96.971 58.6263,96.076 57.4893,95.087" id="Fill-12" fill="#70DC00"></path>
                <path d="M74.5138,101.4591 C73.7508,101.4591 72.9978,101.4191 72.2518,101.3551 L68.8388,140.3621 C70.7108,140.5231 72.5998,140.6231 74.5138,140.6231 C76.4268,140.6231 78.3168,140.5231 80.1888,140.3621 L76.7758,101.3551 C76.0298,101.4191 75.2768,101.4591 74.5138,101.4591" id="Fill-14" fill="#70DC00"></path>
                <path d="M87.8829,97.753 L108.0559,131.325 C111.3119,129.365 114.3729,127.118 117.2259,124.637 L91.5379,95.087 C90.4019,96.076 89.1809,96.971 87.8829,97.753" id="Fill-16" fill="#70DC00"></path>
                <path d="M99.8028,81.3409 C99.4598,82.8279 98.9968,84.2689 98.4118,85.6469 L134.4708,100.9529 C135.9398,97.4969 137.1018,93.8819 137.9598,90.1509 L99.8028,81.3409 Z" id="Fill-18" fill="#70DC00"></path>
                <path d="M99.8028,69.6641 L137.9598,60.8541 C137.1018,57.1231 135.9398,53.5081 134.4708,50.0521 L98.4118,65.3581 C98.9968,66.7351 99.4598,68.1771 99.8028,69.6641" id="Fill-20" fill="#70DC00"></path>
                <path d="M91.5382,55.918 L117.2252,26.368 C114.3732,23.886 111.3112,21.64 108.0562,19.679 L87.8832,53.252 C89.1812,54.033 90.4012,54.929 91.5382,55.918" id="Fill-22" fill="#70DC00"></path>
                <path d="M62.4903,23.4249 C59.4273,24.1289 56.4603,25.0829 53.6233,26.2879 L64.3833,51.6359 C65.7593,51.0509 67.1973,50.5889 68.6823,50.2469 L62.4903,23.4249 Z" id="Fill-24" fill="#70DC00"></path>
                <path d="M34.1837,40.4434 C32.1467,42.7854 30.3027,45.2974 28.6937,47.9704 L52.2927,62.1504 C53.0737,60.8544 53.9677,59.6354 54.9547,58.5014 L34.1837,40.4434 Z" id="Fill-26" fill="#70DC00"></path>
                <path d="M48.6954,73.2432 L21.2754,70.8452 C21.1424,72.3812 21.0614,73.9312 21.0614,75.5022 C21.0614,77.0732 21.1424,78.6242 21.2754,80.1602 L48.6954,77.7612 C48.6314,77.0162 48.5914,76.2642 48.5914,75.5022 C48.5914,74.7402 48.6314,73.9882 48.6954,73.2432" id="Fill-28" fill="#70DC00"></path>
                <path d="M28.6935,103.0343 C30.3025,105.7073 32.1465,108.2203 34.1835,110.5603 L54.9555,92.5043 C53.9675,91.3693 53.0735,90.1503 52.2935,88.8533 L28.6935,103.0343 Z" id="Fill-30" fill="#70DC00"></path>
                <path d="M53.6231,124.7159 C56.4601,125.9219 59.4281,126.8759 62.4901,127.5799 L68.6831,100.7579 C67.1971,100.4159 65.7591,99.9529 64.3831,99.3689 L53.6231,124.7159 Z" id="Fill-32" fill="#70DC00"></path>
                <path d="M86.5372,127.5802 C89.6002,126.8762 92.5662,125.9222 95.4032,124.7162 L84.6442,99.3692 C83.2682,99.9532 81.8292,100.4162 80.3442,100.7582 L86.5372,127.5802 Z" id="Fill-34" fill="#70DC00"></path>
                <path d="M114.8438,110.5606 C116.8808,108.2196 118.7248,105.7066 120.3338,103.0346 L96.7348,88.8536 C95.9538,90.1506 95.0598,91.3696 94.0728,92.5036 L114.8438,110.5606 Z" id="Fill-36" fill="#70DC00"></path>
                <path d="M100.3311,77.7608 L127.7511,80.1598 C127.8841,78.6238 127.9661,77.0738 127.9661,75.5018 C127.9661,73.9318 127.8841,72.3808 127.7511,70.8448 L100.3311,73.2428 C100.3951,73.9888 100.4351,74.7398 100.4351,75.5018 C100.4351,76.2638 100.3951,77.0168 100.3311,77.7608" id="Fill-38" fill="#70DC00"></path>
                <path d="M120.3341,47.9708 C118.7251,45.2978 116.8811,42.7848 114.8441,40.4438 L94.0721,58.5008 C95.0601,59.6358 95.9541,60.8548 96.7341,62.1508 L120.3341,47.9708 Z" id="Fill-40" fill="#70DC00"></path>
                <path d="M95.4034,26.2882 C92.5664,25.0832 89.5994,24.1292 86.5374,23.4252 L80.3434,50.2472 C81.8304,50.5892 83.2684,51.0512 84.6444,51.6362 L95.4034,26.2882 Z" id="Fill-42" fill="#70DC00"></path>
                <path d="M77.4024,15.9464 C77.4024,17.5324 76.1164,18.8174 74.5304,18.8174 C72.9444,18.8174 71.6594,17.5324 71.6594,15.9464 C71.6594,14.3604 72.9444,13.0754 74.5304,13.0754 C76.1164,13.0754 77.4024,14.3604 77.4024,15.9464" id="Fill-44" fill="#FFFFFF"></path>
                <path d="M123.3058,73.1134 C124.6308,73.1134 125.7058,74.1874 125.7058,75.5124 C125.7058,76.8394 124.6308,77.9134 123.3058,77.9134 C121.9808,77.9134 120.9058,76.8394 120.9058,75.5124 C120.9058,74.1874 121.9808,73.1134 123.3058,73.1134" id="Fill-46" fill="#FFFFFF"></path>
                <path d="M36.4298,106.1104 C35.3578,106.8894 33.8568,106.6504 33.0778,105.5784 C32.2988,104.5054 32.5378,103.0054 33.6108,102.2254 C34.6838,101.4474 36.1838,101.6854 36.9628,102.7584 C37.7418,103.8314 37.5028,105.3324 36.4298,106.1104" id="Fill-48" fill="#FFFFFF"></path>
                <path d="M33.6436,48.7139 C32.5726,47.9339 32.3376,46.4319 33.1186,45.3609 C33.8996,44.2899 35.4006,44.0549 36.4716,44.8359 C37.5426,45.6159 37.7776,47.1179 36.9976,48.1889 C36.2156,49.2599 34.7146,49.4949 33.6436,48.7139" id="Fill-50" fill="#FFFFFF"></path>
            </g>
            <path d="M107.1554,125.4086 C106.2244,124.1246 106.5104,122.3296 107.7944,121.3976 C109.0784,120.4676 110.8744,120.7536 111.8044,122.0366 C112.7354,123.3206 112.4494,125.1156 111.1664,126.0476 C109.8824,126.9776 108.0874,126.6916 107.1554,125.4086" id="Fill-53" fill="#FFFFFF"></path>
            <g id="Group-95" transform="translate(26.000000, 26.014000)" fill="#149906">
                <path d="M52.795,0.5616 C51.381,0.4396 49.953,0.3646 48.507,0.3646 C47.066,0.3646 45.642,0.4396 44.232,0.5606 L45.256,12.2726 L45.769,18.1226 C46.672,18.0446 47.584,17.9976 48.507,17.9976 C49.436,17.9976 50.352,18.0446 51.259,18.1236 L51.771,12.2736 L52.795,0.5616 Z" id="Fill-55"></path>
                <path d="M32.2852,22.4932 L23.2032,7.3782 C20.7462,8.8582 18.4352,10.5532 16.2832,12.4262 L27.8482,25.7292 C29.2282,24.5292 30.7092,23.4422 32.2852,22.4932" id="Fill-57"></path>
                <path d="M19.506,37.1895 L3.272,30.2975 C2.163,32.9065 1.287,35.6335 0.641,38.4505 L17.819,42.4165 C18.235,40.6105 18.796,38.8615 19.506,37.1895" id="Fill-59"></path>
                <path d="M17.8233,56.588 L17.8233,56.588 L0.6443,60.554 C1.2923,63.369 2.1703,66.097 3.2793,68.703 L19.5133,61.813 C18.8023,60.141 18.2393,58.393 17.8233,56.588" id="Fill-61"></path>
                <path d="M27.8575,73.2637 L16.2935,86.5677 C18.4455,88.4397 20.7545,90.1337 23.2115,91.6127 L32.2935,76.4967 C30.7185,75.5497 29.2375,74.4637 27.8575,73.2637" id="Fill-63"></path>
                <path d="M51.7686,86.712 L51.7696,86.712 L51.2566,80.862 C50.3496,80.941 49.4346,80.989 48.5066,80.989 C47.5836,80.989 46.6726,80.941 45.7696,80.862 L44.2336,98.425 C45.6426,98.546 47.0666,98.622 48.5066,98.622 C49.9536,98.622 51.3796,98.546 52.7936,98.424 L51.7686,86.712 Z" id="Fill-65"></path>
                <path d="M69.1642,73.2579 C67.7842,74.4579 66.3052,75.5439 64.7302,76.4909 L73.8122,91.6069 C76.2682,90.1279 78.5772,88.4339 80.7282,86.5619 L69.1642,73.2579 Z" id="Fill-67"></path>
                <path d="M96.3712,60.5509 L84.9142,57.9059 L79.1912,56.5849 C78.9832,57.4879 78.7392,58.3749 78.4582,59.2459 C78.1772,60.1169 77.8582,60.9719 77.5032,61.8079 L80.6022,63.1229 L93.7372,68.6979 C94.8462,66.0919 95.7232,63.3649 96.3712,60.5509" id="Fill-69"></path>
                <path d="M93.7452,30.3028 L79.4802,36.3578 L77.5102,37.1948 C78.2202,38.8658 78.7812,40.6148 79.1952,42.4188 L96.3752,38.4518 C95.7282,35.6378 94.8522,32.9098 93.7452,30.3028" id="Fill-71"></path>
                <path d="M80.7384,12.4327 C78.5864,10.5597 76.2774,8.8647 73.8204,7.3837 L64.7384,22.4987 L64.7394,22.4987 L64.7384,22.4987 C66.3134,23.4487 67.7944,24.5357 69.1734,25.7367 L69.1744,25.7367 L80.7384,12.4327 Z" id="Fill-73"></path>
                <path d="M41.4268,18.8057 L40.1058,13.0827 C37.9628,13.5757 35.8888,14.2427 33.9048,15.0847 L36.1998,20.4927 C37.8718,19.7827 39.6208,19.2207 41.4268,18.8057" id="Fill-75"></path>
                <path d="M24.7413,28.837 L20.3093,24.985 C18.8853,26.622 17.5953,28.38 16.4703,30.249 L21.5063,33.274 C22.4543,31.698 23.5413,30.218 24.7413,28.837" id="Fill-77"></path>
                <path d="M17.0108,49.4932 C17.0108,48.5702 17.0588,47.6592 17.1368,46.7572 L11.2868,46.2452 C11.1948,47.3162 11.1378,48.3972 11.1378,49.4932 C11.1378,50.5952 11.1948,51.6812 11.2878,52.7592 L17.1388,52.2472 C17.0598,51.3392 17.0108,50.4222 17.0108,49.4932" id="Fill-79"></path>
                <path d="M21.5138,65.7257 L16.4788,68.7507 C17.6048,70.6197 18.8948,72.3747 20.3188,74.0117 L24.7508,70.1597 C23.5498,68.7807 22.4628,67.2997 21.5138,65.7257" id="Fill-81"></path>
                <path d="M36.2071,78.4952 L33.9111,83.9032 C35.8951,84.7452 37.9691,85.4112 40.1091,85.9032 L41.4311,80.1812 C39.6261,79.7662 37.8781,79.2052 36.2071,78.4952" id="Fill-83"></path>
                <path d="M55.5958,80.1778 L56.9168,85.9008 C59.0578,85.4078 61.1308,84.7408 63.1138,83.8988 L60.8188,78.4908 C59.1478,79.1998 57.3998,79.7628 55.5958,80.1778" id="Fill-85"></path>
                <path d="M72.2696,70.1534 L76.7016,74.0054 C78.1246,72.3694 79.4146,70.6124 80.5396,68.7454 L75.5036,65.7194 C74.5556,67.2944 73.4686,68.7734 72.2696,70.1534" id="Fill-87"></path>
                <path d="M80.003,49.4932 C80.003,50.4212 79.955,51.3382 79.876,52.2462 L85.727,52.7582 C85.819,51.6812 85.877,50.5942 85.877,49.4932 C85.877,48.3972 85.82,47.3172 85.728,46.2472 L79.877,46.7592 C79.955,47.6602 80.003,48.5712 80.003,49.4932" id="Fill-89"></path>
                <path d="M75.5118,33.2803 L80.5468,30.2553 C79.4218,28.3853 78.1338,26.6283 76.7098,24.9913 L72.2788,28.8433 C73.4788,30.2233 74.5648,31.7053 75.5118,33.2803" id="Fill-91"></path>
                <path d="M60.8253,20.4981 L63.1213,15.0911 C61.1373,14.2471 59.0623,13.5791 56.9213,13.0861 L55.5993,18.8091 C57.4043,19.2241 59.1533,19.7871 60.8253,20.4981" id="Fill-93"></path>
            </g>
        </g>
    </g>
</svg>
