<?xml version="1.0" encoding="UTF-8"?>
<svg width="482px" height="120px" viewBox="0 0 482 120" version="1.1" xmlns="http://www.w3.org/2000/svg" xmlns:xlink="http://www.w3.org/1999/xlink">
    <!-- Generator: Sketch 56.3 (81716) - https://sketch.com -->
    <title>sourcecred-logo-beta-horiz-color-eye</title>
    <defs>
        <polygon id="path-1" points="0.1453 0.5785 32.284 0.5785 32.284 46.0145 0.1453 46.0145"></polygon>
        <polygon id="path-3" points="0.0008 0.7273 119.2728 0.7273 119.2728 120 0.0008 120"></polygon>
    </defs>
    <g id="sourcecred-logo-beta-horiz-color-eye" stroke="none" stroke-width="1" fill="none" fill-rule="evenodd">
        <g id="Group-116" transform="translate(0.000000, -1.000000)">
            <g id="Group-22" transform="translate(132.000000, 33.273000)">
                <path d="M27.9114,15.5439 L27.9114,14.8089 C27.9114,11.0659 24.9724,8.9289 19.8934,8.9289 C15.1494,8.9289 12.2764,10.6659 12.2764,13.4719 C12.2764,15.3429 13.6124,16.6119 16.3514,17.2809 L25.3724,19.3529 C30.3174,20.5549 33.0574,21.7579 35.1944,23.7619 C37.4674,25.8339 38.6024,28.7069 38.6024,32.2479 C38.6024,41.4689 31.5194,47.1479 19.9604,47.1479 C7.9324,47.1479 0.9834,41.4019 0.9174,31.4459 L10.9394,31.4459 C11.1404,36.5239 14.0144,38.7959 20.0944,38.7959 C25.2384,38.7959 28.3794,36.9259 28.3794,33.7849 C28.3794,31.5799 26.7754,30.0429 23.5684,29.2409 L15.4834,27.2359 C10.7394,26.1009 7.7994,24.8309 5.7954,23.0939 C3.5224,21.2229 2.2534,17.9489 2.2534,14.3409 C2.2534,5.7219 8.8684,0.5759 20.1604,0.5759 C27.3774,0.5759 32.4554,2.7149 35.3284,6.9239 C36.7984,9.1289 37.5334,11.5339 37.9344,15.5439 L27.9114,15.5439 Z" id="Fill-1" fill="#000000"></path>
                <path d="M52.2298,29.9765 C52.2298,36.0565 54.9688,39.4645 59.8468,39.4645 C64.5908,39.4645 67.3978,36.0565 67.3978,30.1765 C67.3978,23.9625 64.7248,20.5545 59.7798,20.5545 C54.9688,20.5545 52.2298,23.9625 52.2298,29.9765 M76.9528,30.2435 C76.9528,39.9985 69.7358,47.0145 59.7798,47.0145 C49.7568,47.0145 42.6738,39.9985 42.6738,29.9765 C42.6738,20.0205 49.7568,13.0045 59.7798,13.0045 C70.0028,13.0045 76.9528,19.9535 76.9528,30.2435" id="Fill-3" fill="#000000"></path>
                <path d="M111.5618,46.1465 L102.5408,46.1465 L102.5408,42.6045 C100.2698,45.8125 97.9308,47.0145 93.9888,47.0145 C90.6478,47.0145 87.5738,45.8125 85.4358,43.6735 C83.2308,41.4685 82.3628,38.7295 82.3628,34.1195 L82.3628,13.8735 L91.8498,13.8735 L91.8498,32.0475 C91.8498,35.1885 91.9838,35.9905 92.8528,37.1255 C93.7208,38.3285 95.2578,38.9975 96.9958,38.9975 C98.7328,38.9975 100.2028,38.3285 101.0718,37.1255 C101.9398,35.9905 102.0738,35.2545 102.0738,32.0475 L102.0738,13.8735 L111.5618,13.8735 L111.5618,46.1465 Z" id="Fill-5" fill="#000000"></path>
                <path d="M127.929,13.873 L127.662,19.619 C129.533,14.407 131.939,12.937 138.821,13.005 L138.821,21.958 C137.685,21.824 137.217,21.824 136.415,21.824 C133.141,21.824 130.468,23.294 129.4,25.7 C128.464,27.838 128.129,30.845 128.129,37.059 L128.129,46.146 L118.642,46.146 L118.642,13.873 L127.929,13.873 Z" id="Fill-7" fill="#000000"></path>
                <path d="M163.2073,25.499 C162.6733,22.426 160.5343,20.688 157.3273,20.688 C152.9843,20.688 150.6453,23.963 150.6453,29.843 C150.6453,36.057 152.9843,39.331 157.3943,39.331 C160.8023,39.331 162.6733,37.594 163.4073,33.785 L172.6293,34.253 C171.2923,42.404 165.6803,47.015 157.1273,47.015 C147.3053,47.015 141.0903,40.467 141.0903,30.11 C141.0903,19.419 147.2373,13.005 157.4613,13.005 C165.8803,13.005 171.6263,17.815 172.2283,25.499 L163.2073,25.499 Z" id="Fill-9" fill="#000000"></path>
                <path d="M198.4847,26.1006 C198.0837,22.2916 195.8787,20.2206 192.2037,20.2206 C188.5287,20.2206 186.1237,22.2916 185.3877,26.1006 L198.4847,26.1006 Z M185.3217,32.7826 C185.9227,37.1926 188.5287,39.5976 192.6047,39.5976 C195.1437,39.5976 196.9477,38.7296 198.2167,36.7246 L207.8387,36.7246 C206.0357,43.0056 200.0217,47.0146 192.3377,47.0146 C182.3807,47.0146 175.7657,40.1996 175.7657,30.0426 C175.7657,19.9536 182.5147,13.0046 192.2707,13.0046 C199.0867,13.0046 204.2307,16.4126 206.6357,22.4926 C207.7727,25.2986 208.2397,28.3056 208.2397,32.7826 L185.3217,32.7826 Z" id="Fill-11" fill="#000000"></path>
                <path d="M242.9827,15.8105 C241.9807,11.5345 238.7067,9.0625 233.9617,9.0625 C226.6127,9.0625 222.4027,14.4745 222.4027,23.8295 C222.4027,33.1165 226.6127,38.6635 233.6957,38.6635 C238.8397,38.6635 241.9147,36.1225 243.1167,30.7785 L253.7407,30.7785 C252.5387,40.8675 244.9877,47.1485 233.9617,47.1485 C220.7987,47.1485 212.3797,38.0615 212.3797,23.8295 C212.3797,9.5305 220.6657,0.5765 233.8957,0.5765 C244.6537,0.5765 252.0037,6.3225 253.2067,15.8105 L242.9827,15.8105 Z" id="Fill-13" fill="#000000"></path>
                <path d="M267.7034,13.873 L267.4364,19.619 C269.3074,14.407 271.7134,12.937 278.5954,13.005 L278.5954,21.958 C277.4594,21.824 276.9914,21.824 276.1894,21.824 C272.9154,21.824 270.2424,23.294 269.1734,25.7 C268.2384,27.838 267.9034,30.845 267.9034,37.059 L267.9034,46.146 L258.4164,46.146 L258.4164,13.873 L267.7034,13.873 Z" id="Fill-15" fill="#000000"></path>
                <path d="M303.5169,26.1006 C303.1159,22.2916 300.9109,20.2206 297.2359,20.2206 C293.5609,20.2206 291.1559,22.2916 290.4199,26.1006 L303.5169,26.1006 Z M290.3539,32.7826 C290.9549,37.1926 293.5609,39.5976 297.6369,39.5976 C300.1759,39.5976 301.9799,38.7296 303.2489,36.7246 L312.8709,36.7246 C311.0679,43.0056 305.0539,47.0146 297.3699,47.0146 C287.4129,47.0146 280.7979,40.1996 280.7979,30.0426 C280.7979,19.9536 287.5469,13.0046 297.3029,13.0046 C304.1189,13.0046 309.2629,16.4126 311.6679,22.4926 C312.8049,25.2986 313.2719,28.3056 313.2719,32.7826 L290.3539,32.7826 Z" id="Fill-17" fill="#000000"></path>
                <g id="Group-21" transform="translate(317.000000, 1.000000)">
                    <mask id="mask-2" fill="white">
                        <use xlink:href="#path-1"></use>
                    </mask>
                    <g id="Clip-20"></g>
                    <path d="M9.5003,28.9765 C9.5003,34.6565 12.1723,38.3305 16.3153,38.3305 C20.3913,38.3305 23.1313,34.5885 23.1313,29.1105 C23.1313,23.3635 20.4583,19.6225 16.3153,19.6225 C12.1723,19.6225 9.5003,23.2965 9.5003,28.9765 L9.5003,28.9765 Z M32.2843,45.1465 L23.1973,45.1465 L23.1973,41.6715 C20.7923,44.8125 18.2533,46.0145 14.3113,46.0145 C5.8243,46.0145 0.1453,39.2665 0.1453,29.0425 C0.1453,18.7525 5.8923,11.9375 14.5783,11.9375 C18.0533,11.9375 20.5243,12.9395 22.7963,15.2785 L22.7963,0.5785 L32.2843,0.5785 L32.2843,45.1465 Z" id="Fill-19" fill="#000000" mask="url(#mask-2)"></path>
                </g>
            </g>
            <g id="Group-25" transform="translate(0.000000, 0.273000)">
                <mask id="mask-4" fill="white">
                    <use xlink:href="#path-3"></use>
                </mask>
                <g id="Clip-24"></g>
                <path d="M119.2728,60.3633 C119.2728,93.3003 92.5728,120.0003 59.6358,120.0003 C26.7008,120.0003 0.0008,93.3003 0.0008,60.3633 C0.0008,27.4273 26.7008,0.7273 59.6358,0.7273 C92.5728,0.7273 119.2728,27.4273 119.2728,60.3633" id="Fill-23" fill="#000000" mask="url(#mask-4)"></path>
            </g>
            <path d="M59.6419,39.8687 C60.2519,39.8687 60.8549,39.8997 61.4519,39.9517 L64.1829,8.7297 C62.6849,8.5997 61.1729,8.5207 59.6419,8.5207 C58.1099,8.5207 56.5979,8.5997 55.0999,8.7297 L57.8309,39.9517 C58.4279,39.8997 59.0309,39.8687 59.6419,39.8687" id="Fill-26" fill="#70DC00"></path>
            <path d="M48.9407,42.8345 L32.7947,15.9625 C30.1877,17.5315 27.7377,19.3305 25.4547,21.3165 L46.0147,44.9695 C46.9247,44.1775 47.9017,43.4605 48.9407,42.8345" id="Fill-28" fill="#70DC00"></path>
            <path d="M40.513,52.5249 L11.651,40.2739 C10.475,43.0399 9.545,45.9329 8.859,48.9209 L39.4,55.9709 C39.674,54.7809 40.044,53.6279 40.513,52.5249" id="Fill-30" fill="#70DC00"></path>
            <path d="M39.3997,65.3169 L8.8587,72.3689 C9.5457,75.3549 10.4747,78.2489 11.6507,81.0149 L40.5127,68.7639 C40.0447,67.6619 39.6737,66.5079 39.3997,65.3169" id="Fill-32" fill="#70DC00"></path>
            <path d="M46.015,76.3198 L25.454,99.9718 C27.738,101.9588 30.188,103.7568 32.794,105.3258 L48.941,78.4538 C47.902,77.8288 46.925,77.1118 46.015,76.3198" id="Fill-34" fill="#70DC00"></path>
            <path d="M59.6419,81.4204 C59.0309,81.4204 58.4279,81.3884 57.8309,81.3364 L55.0999,112.5594 C56.5979,112.6884 58.1099,112.7684 59.6419,112.7684 C61.1729,112.7684 62.6849,112.6884 64.1829,112.5594 L61.4519,81.3364 C60.8549,81.3884 60.2519,81.4204 59.6419,81.4204" id="Fill-36" fill="#70DC00"></path>
            <path d="M70.3421,78.4536 L86.4881,105.3256 C89.0951,103.7566 91.5451,101.9586 93.8281,99.9726 L73.2681,76.3196 C72.3581,77.1116 71.3811,77.8286 70.3421,78.4536" id="Fill-38" fill="#70DC00"></path>
            <path d="M79.8831,65.3169 C79.6091,66.5079 79.2381,67.6619 78.7701,68.7639 L107.6321,81.0149 C108.8081,78.2489 109.7371,75.3549 110.4251,72.3689 L79.8831,65.3169 Z" id="Fill-40" fill="#70DC00"></path>
            <path d="M79.8831,55.9712 L110.4251,48.9202 C109.7371,45.9332 108.8081,43.0392 107.6321,40.2742 L78.7701,52.5252 C79.2381,53.6272 79.6091,54.7812 79.8831,55.9712" id="Fill-42" fill="#70DC00"></path>
            <path d="M73.2679,44.9693 L93.8289,21.3173 C91.5449,19.3303 89.0949,17.5323 86.4889,15.9623 L70.3419,42.8343 C71.3809,43.4603 72.3579,44.1773 73.2679,44.9693" id="Fill-44" fill="#70DC00"></path>
            <path d="M50.0179,18.9605 C47.5669,19.5235 45.1919,20.2875 42.9209,21.2525 L51.5329,41.5415 C52.6339,41.0725 53.7859,40.7025 54.9749,40.4295 L50.0179,18.9605 Z" id="Fill-46" fill="#70DC00"></path>
            <path d="M27.3607,32.5825 C25.7297,34.4565 24.2547,36.4685 22.9657,38.6075 L41.8557,49.9575 C42.4807,48.9205 43.1957,47.9445 43.9867,47.0355 L27.3607,32.5825 Z" id="Fill-48" fill="#70DC00"></path>
            <path d="M38.9769,58.8364 L17.0299,56.9164 C16.9229,58.1464 16.8579,59.3874 16.8579,60.6444 C16.8579,61.9014 16.9229,63.1434 17.0299,64.3724 L38.9769,62.4524 C38.9249,61.8564 38.8929,61.2544 38.8929,60.6444 C38.8929,60.0344 38.9249,59.4324 38.9769,58.8364" id="Fill-50" fill="#70DC00"></path>
            <path d="M22.9661,82.6812 C24.2541,84.8202 25.7301,86.8312 27.3611,88.7052 L43.9871,74.2522 C43.1961,73.3442 42.4811,72.3682 41.8561,71.3312 L22.9661,82.6812 Z" id="Fill-52" fill="#70DC00"></path>
            <path d="M42.9212,100.0357 C45.1922,101.0007 47.5672,101.7647 50.0182,102.3277 L54.9752,80.8587 C53.7852,80.5857 52.6342,80.2157 51.5322,79.7477 L42.9212,100.0357 Z" id="Fill-54" fill="#70DC00"></path>
            <path d="M69.265,102.3277 C71.716,101.7647 74.091,101.0007 76.362,100.0357 L67.75,79.7477 C66.649,80.2157 65.497,80.5857 64.308,80.8587 L69.265,102.3277 Z" id="Fill-56" fill="#70DC00"></path>
            <path d="M91.9222,88.7056 C93.5532,86.8316 95.0282,84.8196 96.3172,82.6816 L77.4272,71.3316 C76.8032,72.3686 76.0872,73.3446 75.2962,74.2526 L91.9222,88.7056 Z" id="Fill-58" fill="#70DC00"></path>
            <path d="M80.306,62.4527 L102.253,64.3727 C102.36,63.1427 102.425,61.9017 102.425,60.6437 C102.425,59.3877 102.36,58.1457 102.253,56.9167 L80.306,58.8367 C80.358,59.4317 80.39,60.0347 80.39,60.6437 C80.39,61.2547 80.358,61.8557 80.306,62.4527" id="Fill-60" fill="#70DC00"></path>
            <path d="M96.3167,38.6079 C95.0287,36.4679 93.5527,34.4569 91.9217,32.5829 L75.2957,47.0359 C76.0877,47.9449 76.8027,48.9209 77.4267,49.9579 L96.3167,38.6079 Z" id="Fill-62" fill="#70DC00"></path>
            <path d="M76.3616,21.2525 C74.0906,20.2875 71.7156,19.5235 69.2646,18.9605 L64.3076,40.4295 C65.4976,40.7025 66.6486,41.0725 67.7506,41.5415 L76.3616,21.2525 Z" id="Fill-64" fill="#70DC00"></path>
            <path d="M61.9534,12.9751 C61.9534,14.2451 60.9244,15.2731 59.6544,15.2731 C58.3864,15.2731 57.3564,14.2451 57.3564,12.9751 C57.3564,11.7051 58.3864,10.6761 59.6544,10.6761 C60.9244,10.6761 61.9534,11.7051 61.9534,12.9751" id="Fill-66" fill="#FFFFFF"></path>
            <path d="M98.6956,58.732 C99.7566,58.732 100.6166,59.592 100.6166,60.653 C100.6166,61.713 99.7566,62.574 98.6956,62.574 C97.6336,62.574 96.7736,61.713 96.7736,60.653 C96.7736,59.592 97.6336,58.732 98.6956,58.732" id="Fill-68" fill="#FFFFFF"></path>
            <path d="M29.1585,85.1431 C28.3005,85.7671 27.0985,85.5761 26.4755,84.7171 C25.8525,83.8591 26.0435,82.6581 26.9025,82.0351 C27.7615,81.4111 28.9625,81.6021 29.5855,82.4601 C30.2085,83.3191 30.0175,84.5201 29.1585,85.1431" id="Fill-70" fill="#FFFFFF"></path>
            <path d="M26.929,39.2027 C26.072,38.5777 25.883,37.3767 26.508,36.5187 C27.133,35.6617 28.335,35.4737 29.193,36.0987 C30.049,36.7237 30.238,37.9257 29.613,38.7827 C28.988,39.6397 27.786,39.8277 26.929,39.2027" id="Fill-72" fill="#FFFFFF"></path>
            <path d="M85.7689,100.5786 C85.0239,99.5516 85.2519,98.1136 86.2799,97.3686 C87.3069,96.6236 88.7449,96.8516 89.4899,97.8796 C90.2349,98.9076 90.0059,100.3446 88.9789,101.0896 C87.9509,101.8346 86.5139,101.6056 85.7689,100.5786" id="Fill-74" fill="#FFFFFF"></path>
            <path d="M63.0687,21.4722 C61.9367,21.3732 60.7937,21.3132 59.6357,21.3132 C58.4827,21.3132 57.3427,21.3732 56.2147,21.4712 L57.0347,30.8452 L57.4437,35.5282 C58.1677,35.4652 58.8967,35.4262 59.6357,35.4262 C60.3797,35.4262 61.1127,35.4652 61.8397,35.5292 L62.2487,30.8462 L63.0687,21.4722 Z" id="Fill-76" fill="#149906"></path>
            <path d="M46.6517,39.0259 L39.3817,26.9279 C37.4167,28.1119 35.5667,29.4689 33.8437,30.9679 L43.1007,41.6169 C44.2057,40.6559 45.3907,39.7859 46.6517,39.0259" id="Fill-78" fill="#149906"></path>
            <path d="M36.4232,50.7886 L23.4292,45.2726 C22.5422,47.3606 21.8412,49.5436 21.3232,51.7976 L35.0732,54.9726 C35.4052,53.5266 35.8552,52.1276 36.4232,50.7886" id="Fill-80" fill="#149906"></path>
            <path d="M35.0765,66.3159 L35.0765,66.3159 L21.3265,69.4899 C21.8455,71.7439 22.5475,73.9259 23.4345,76.0129 L36.4295,70.4979 C35.8595,69.1599 35.4095,67.7599 35.0765,66.3159" id="Fill-82" fill="#149906"></path>
            <path d="M43.1087,79.6636 L33.8517,90.3116 C35.5747,91.8096 37.4227,93.1656 39.3887,94.3496 L46.6587,82.2516 C45.3977,81.4926 44.2127,80.6236 43.1087,79.6636" id="Fill-84" fill="#149906"></path>
            <path d="M62.2474,90.4273 L62.2474,90.4273 L61.8374,85.7443 C61.1114,85.8083 60.3784,85.8463 59.6364,85.8463 C58.8974,85.8463 58.1684,85.8083 57.4454,85.7453 L56.2154,99.8023 C57.3444,99.9003 58.4824,99.9593 59.6364,99.9593 C60.7934,99.9593 61.9354,99.9003 63.0674,99.8013 L62.2474,90.4273 Z" id="Fill-86" fill="#149906"></path>
            <path d="M76.1702,79.6587 C75.0662,80.6187 73.8812,81.4877 72.6212,82.2467 L79.8912,94.3457 C81.8572,93.1617 83.7042,91.8047 85.4272,90.3067 L76.1702,79.6587 Z" id="Fill-88" fill="#149906"></path>
            <path d="M97.9466,69.4878 L88.7766,67.3708 L84.1966,66.3128 C84.0296,67.0348 83.8346,67.7458 83.6096,68.4428 C83.3836,69.1408 83.1296,69.8248 82.8446,70.4938 L85.3266,71.5468 L95.8396,76.0088 C96.7256,73.9238 97.4276,71.7408 97.9466,69.4878" id="Fill-90" fill="#149906"></path>
            <path d="M95.845,45.2769 L84.428,50.1229 L82.851,50.7929 C83.419,52.1309 83.867,53.5299 84.199,54.9749 L97.95,51.7999 C97.432,49.5469 96.732,47.3639 95.845,45.2769" id="Fill-92" fill="#149906"></path>
            <path d="M85.4339,30.9732 C83.7119,29.4742 81.8639,28.1172 79.8979,26.9322 L72.6279,39.0312 C73.8889,39.7892 75.0739,40.6612 76.1779,41.6212 L85.4339,30.9732 Z" id="Fill-94" fill="#149906"></path>
            <path d="M53.9691,36.0747 L52.9111,31.4937 C51.1971,31.8877 49.5361,32.4217 47.9481,33.0957 L49.7851,37.4257 C51.1241,36.8557 52.5241,36.4067 53.9691,36.0747" id="Fill-96" fill="#149906"></path>
            <path d="M40.6136,44.104 L37.0666,41.02 C35.9266,42.331 34.8946,43.738 33.9946,45.234 L38.0236,47.655 C38.7836,46.394 39.6526,45.208 40.6136,44.104" id="Fill-98" fill="#149906"></path>
            <path d="M34.4261,60.6363 C34.4261,59.8983 34.4651,59.1693 34.5271,58.4473 L29.8451,58.0373 C29.7711,58.8953 29.7251,59.7603 29.7251,60.6363 C29.7251,61.5183 29.7711,62.3893 29.8461,63.2513 L34.5291,62.8413 C34.4651,62.1153 34.4261,61.3803 34.4261,60.6363" id="Fill-100" fill="#149906"></path>
            <path d="M38.0306,73.6294 L34.0006,76.0514 C34.9016,77.5464 35.9336,78.9514 37.0746,80.2614 L40.6216,77.1784 C39.6606,76.0744 38.7906,74.8894 38.0306,73.6294" id="Fill-102" fill="#149906"></path>
            <path d="M49.7913,83.8511 L47.9533,88.1791 C49.5413,88.8531 51.2013,89.3861 52.9153,89.7801 L53.9723,85.2001 C52.5273,84.8681 51.1283,84.4181 49.7913,83.8511" id="Fill-104" fill="#149906"></path>
            <path d="M65.3099,85.1968 L66.3679,89.7778 C68.0809,89.3838 69.7409,88.8498 71.3279,88.1758 L69.4909,83.8468 C68.1529,84.4158 66.7539,84.8648 65.3099,85.1968" id="Fill-106" fill="#149906"></path>
            <path d="M78.6556,77.1734 L82.2026,80.2564 C83.3426,78.9464 84.3746,77.5414 85.2746,76.0464 L81.2446,73.6244 C80.4856,74.8844 79.6166,76.0694 78.6556,77.1734" id="Fill-108" fill="#149906"></path>
            <path d="M84.846,60.6363 C84.846,61.3803 84.807,62.1143 84.744,62.8403 L89.427,63.2503 C89.501,62.3883 89.547,61.5183 89.547,60.6363 C89.547,59.7603 89.502,58.8953 89.428,58.0383 L84.745,58.4483 C84.808,59.1693 84.846,59.8993 84.846,60.6363" id="Fill-110" fill="#149906"></path>
            <path d="M81.2513,47.6597 L85.2813,45.2377 C84.3813,43.7427 83.3503,42.3357 82.2103,41.0247 L78.6633,44.1087 C79.6233,45.2137 80.4923,46.3987 81.2513,47.6597" id="Fill-112" fill="#149906"></path>
            <path d="M69.4954,37.4292 L71.3334,33.1002 C69.7454,32.4252 68.0854,31.8912 66.3704,31.4962 L65.3134,36.0762 C66.7584,36.4092 68.1574,36.8602 69.4954,37.4292" id="Fill-114" fill="#149906"></path>
        </g>
    </g>
</svg>
